<?xml version="1.0" encoding="iso-8859-1"?>
<!-- Generator: Adobe Illustrator 19.0.0, SVG Export Plug-In . SVG Version: 6.00 Build 0)  -->
<svg version="1.1" id="Capa_1" xmlns="http://www.w3.org/2000/svg" xmlns:xlink="http://www.w3.org/1999/xlink" x="0px" y="0px"
	 viewBox="0 0 512 512" style="enable-background:new 0 0 512 512;" xml:space="preserve">
<g>
	<g>
		<path d="M0,51v410h512V51H0z M482,431H30v-40h452V431z M482,361H114.213l84.287-84.287l55,55l146.5-146.5l82,82V361z M482,224.787
			l-82-82l-146.5,146.5l-55-55L71.787,361H30V81h452V224.787z"/>
	</g>
</g>
<g>
	<g>
		<path d="M120,111c-33.084,0-60,26.916-60,60s26.916,60,60,60s60-26.916,60-60S153.084,111,120,111z M120,201
			c-16.542,0-30-13.458-30-30s13.458-30,30-30s30,13.458,30,30S136.542,201,120,201z"/>
	</g>
</g>
<g>
</g>
<g>
</g>
<g>
</g>
<g>
</g>
<g>
</g>
<g>
</g>
<g>
</g>
<g>
</g>
<g>
</g>
<g>
</g>
<g>
</g>
<g>
</g>
<g>
</g>
<g>
</g>
<g>
</g>
</svg>
